#!OML:ASF I:\Actors\actors\Patient Classification 2\Patient 1\Session 1\actor1.ASF
:FULLY-SPECIFIED
:DEGREES
811
root -0.480152 18.5648 5.31925 0.274416 2.21429 -6.41232
lowerback 19.7394 0.85029 1.56717
upperback 3.76412 1.49575 0.728423
thorax -6.94293 0.697901 -0.485853
lowerneck -19.4633 -2.74289 -1.19379
upperneck 15.8425 -4.21057 3.99141
head 8.23419 -1.64535 1.00193
rclavicle -1.74931e-014 4.77083e-015
rhumerus -24.855 39.0971 -51.0037
rradius 88.9465
rwrist -8.74805
rhand 8.53295 -35.7168
rfingers 7.12502
rthumb 33.7336 -62.5593
lclavicle -1.74931e-014 4.77083e-015
lhumerus -20.2785 -42.6124 59.4235
lradius 88.8764
lwrist 19.8438
lhand 6.41247 -21.0965
lfingers 7.12502
lthumb 31.7163 6.1659
rfemur 7.15629 1.62285 19.9761
rtibia 7.95139e-015
rfoot -15.9718 -14.2346
rtoes -16.797
lfemur -12.4452 -0.199256 -7.37376
ltibia 32.5258
lfoot -20.0619 4.01716
ltoes -57.2874
812
root -0.483124 18.5631 5.32183 0.212212 2.14303 -6.42977
lowerback 19.7034 0.86491 1.4697
upperback 3.73393 1.49443 0.727137
thorax -6.95899 0.698955 -0.431134
lowerneck -19.5291 -2.68922 -1.15632
upperneck 15.8328 -4.12434 3.87829
head 8.23619 -1.6135 0.968367
rclavicle 4.39314e-014 -7.95139e-016
rhumerus -24.9195 39.5443 -50.4887
rradius 89.8411
rwrist -9.98417
rhand 5.73203 -36.4537
rfingers 7.12502
rthumb 31.0679 -63.8422
lclavicle 4.39314e-014 -7.95139e-016
lhumerus -19.5687 -42.5729 58.2609
lradius 89.2958
lwrist 20.3372
lhand 6.89923 -20.6479
lfingers 7.12502
lthumb 32.1798 6.52186
rfemur 7.22411 1.69357 20.0093
rtibia -2.54444e-014
rfoot -16.0399 -14.1998
rtoes -16.6197
lfemur -12.3066 -0.170666 -7.34368
ltibia 32.4661
lfoot -20.1093 4.02202
ltoes -57.2989
813
root -0.487118 18.5625 5.32199 0.126079 2.08044 -6.44957
lowerback 19.7474 0.882093 1.42063
upperback 3.69734 1.50518 0.690037
thorax -7.02219 0.704018 -0.447023
lowerneck -19.5465 -2.65558 -1.15095
upperneck 15.7481 -4.07337 3.86389
head 8.2088 -1.59176 0.969157
rclavicle -4.96962e-015 -3.97569e-015
rhumerus -24.409 39.7541 -49.469
rradius 90.4559
rwrist -10.6841
rhand 5.07882 -36.3974
rfingers 7.12502
rthumb 30.4452 -63.9032
lclavicle -4.96962e-015 -3.97569e-015
lhumerus -18.789 -42.5805 56.9722
lradius 89.743
lwrist 20.8094
lhand 7.35954 -20.2499
lfingers 7.12502
lthumb 32.6179 6.83016
rfemur 7.31219 1.75529 20.0506
rtibia 3.18055e-015
rfoot -16.0646 -14.1954
rtoes -16.7168
lfemur -12.1551 -0.159021 -7.30562
ltibia 32.4044
lfoot -20.1435 4.00819
ltoes -57.2643
814
root -0.490328 18.563 5.32107 0.0320413 2.03981 -6.45674
lowerback 19.8425 0.894893 1.42593
upperback 3.63859 1.51975 0.616942
thorax -7.1342 0.708845 -0.534813
lowerneck -19.5003 -2.64013 -1.07349
upperneck 15.6074 -4.05252 3.78467
head 8.14936 -1.58833 0.933347
rclavicle -2.66371e-014 2.38542e-015
rhumerus -23.7624 39.6149 -48.2975
rradius 90.9602
rwrist -10.4359
rhand 6.89202 -35.9245
rfingers 7.12502
rthumb 32.1729 -63.0956
lclavicle -2.66371e-014 2.38542e-015
lhumerus -17.9447 -42.6165 55.6055
lradius 90.1873
lwrist 21.4054
lhand 8.18319 -20.3744
lfingers 7.12502
lthumb 33.4012 6.5403
rfemur 7.41034 1.79512 20.0756
rtibia 1.11319e-014
rfoot -16.0909 -14.1944
rtoes -16.7854
lfemur -12.007 -0.171295 -7.28371
ltibia 32.3468
lfoot -20.1483 4.03395
ltoes -57.232
815
root -0.493118 18.5641 5.31935 -0.024441 2.06615 -6.45758
lowerback 19.8904 0.880453 1.41056
upperback 3.57806 1.49525 0.564466
thorax -7.22483 0.695722 -0.577952
lowerneck -19.5068 -2.61403 -1.00743
upperneck 15.523 -4.00743 3.66154
head 8.1165 -1.57711 0.887261
rclavicle -1.19271e-014 1.03368e-014
rhumerus -23.2076 39.9709 -47.2383
rradius 91.6667
rwrist -11.918
rhand 4.81728 -36.1937
rfingers 7.12502
rthumb 30.1957 -63.7453
lclavicle -1.19271e-014 1.03368e-014
lhumerus -17.1115 -42.5725 54.2626
lradius 90.6249
lwrist 22.0386
lhand 9.12622 -21.054
lfingers 7.12502
lthumb 34.2971 5.66328
rfemur 7.47201 1.76837 20.0851
rtibia 2.8625e-014
rfoot -16.1561 -14.1628
rtoes -16.5823
lfemur -11.9315 -0.255422 -7.27764
ltibia 32.2981
lfoot -20.1544 4.08046
ltoes -57.2366
816
root -0.495778 18.5672 5.3186 0.0488703 2.14107 -6.46174
lowerback 19.7285 0.835979 1.34771
upperback 3.52019 1.42073 0.546305
thorax -7.20344 0.661203 -0.54045
lowerneck -19.5672 -2.56342 -1.01489
upperneck 15.5193 -3.92269 3.59499
head 8.12202 -1.54375 0.876437
rclavicle 3.57812e-015 -3.97569e-015
rhumerus -22.2721 40.1037 -45.8474
rradius 92.1793
rwrist -12.4503
rhand 4.64507 -36.1285
rfingers 7.12502
rthumb 30.0314 -63.7101
lclavicle 3.57812e-015 -3.97569e-015
lhumerus -16.3104 -42.3606 53.0366
lradius 91.0198
lwrist 22.4255
lhand 9.72325 -21.4946
lfingers 7.12502
lthumb 34.8638 5.09315
rfemur 7.39339 1.69347 20.0886
rtibia -3.18055e-015
rfoot -16.1803 -14.1423
rtoes -16.3947
lfemur -12.0205 -0.394595 -7.27701
ltibia 32.2635
lfoot -20.1846 4.13558
ltoes -57.2522
817
root -0.497923 18.5707 5.31949 0.215818 2.21278 -6.49855
lowerback 19.4328 0.788156 1.32891
upperback 3.43281 1.34917 0.528341
thorax -7.14084 0.627456 -0.526772
lowerneck -19.6104 -2.52317 -1.1036
upperneck 15.5467 -3.85637 3.65889
head 8.14018 -1.51017 0.92024
rclavicle -4.77083e-015 6.36111e-015
rhumerus -21.4061 40.1578 -44.5671
rradius 92.6769
rwrist -12.9041
rhand 4.48127 -35.9932
rfingers 7.12502
rthumb 29.8751 -63.6031
lclavicle -4.77083e-015 6.36111e-015
lhumerus -15.5287 -42.1061 51.8464
lradius 91.3986
lwrist 22.7836
lhand 9.98724 -21.538
lfingers 7.12502
lthumb 35.1142 4.99127
rfemur 7.21394 1.62182 20.1272
rtibia -3.18055e-015
rfoot -16.1715 -14.1538
rtoes -16.3684
lfemur -12.2135 -0.527664 -7.23964
ltibia 32.2424
lfoot -20.1868 4.22025
ltoes -57.2503
818
root -0.500088 18.572 5.32132 0.308275 2.23876 -6.55807
lowerback 19.2344 0.770911 1.34672
upperback 3.35975 1.32575 0.501489
thorax -7.11277 0.615619 -0.557276
lowerneck -19.6781 -2.50248 -1.19816
upperneck 15.5387 -3.82578 3.78373
head 8.15309 -1.48768 0.98074
rclavicle 6.36111e-015 6.36111e-015
rhumerus -20.6486 40.0755 -43.3987
rradius 93.1632
rwrist -13.1693
rhand 4.32714 -35.8872
rfingers 7.12502
rthumb 29.728 -63.5234
lclavicle 6.36111e-015 6.36111e-015
lhumerus -14.6563 -41.8862 50.552
lradius 91.8168
lwrist 23.2903
lhand 9.81549 -21.4848
lfingers 7.12502
lthumb 34.9513 5.0826
rfemur 7.11362 1.59561 20.2012
rtibia -1.27222e-014
rfoot -16.1913 -14.1608
rtoes -16.4633
lfemur -12.3077 -0.621276 -7.16967
ltibia 32.2218
lfoot -20.1929 4.27873
ltoes -57.2409
819
root -0.502061 18.5723 5.32325 0.301378 2.21325 -6.57257
lowerback 19.1604 0.784763 1.31118
upperback 3.3206 1.33347 0.470216
thorax -7.11529 0.619711 -0.571705
lowerneck -19.7294 -2.47989 -1.19586
upperneck 15.444 -3.78336 3.7426
head 8.12789 -1.47255 0.971669
rclavicle -3.97569e-016 0
rhumerus -19.8171 39.7869 -42.1294
rradius 93.6378
rwrist -12.9338
rhand 5.16521 -35.6394
rfingers 7.12502
rthumb 30.5275 -63.1299
lclavicle -3.97569e-016 0
lhumerus -13.7154 -41.6323 49.2507
lradius 92.2339
lwrist 23.755
lhand 9.55834 -21.4197
lfingers 7.12502
lthumb 34.7073 5.20425
rfemur 7.12369 1.62077 20.225
rtibia -9.54166e-015
rfoot -16.273 -14.1154
rtoes -16.1799
lfemur -12.2692 -0.677746 -7.15183
ltibia 32.1952
lfoot -20.2458 4.31358
ltoes -57.2421
820
root -0.504967 18.573 5.32535 0.271337 2.15795 -6.53584
lowerback 19.1073 0.823066 1.1931
upperback 3.28067 1.35636 0.431497
thorax -7.1313 0.632813 -0.551299
lowerneck -19.7329 -2.44719 -1.14769
upperneck 15.3258 -3.71531 3.57974
head 8.08223 -1.45614 0.91812
rclavicle 1.27222e-014 1.51076e-014
rhumerus -19.0397 39.4733 -40.9066
rradius 94.1944
rwrist -12.8617
rhand 7.78042 -35.5699
rfingers 7.12502
rthumb 33.0182 -62.5663
lclavicle 1.27222e-014 1.51076e-014
lhumerus -12.8028 -41.3085 48.0499
lradius 92.6104
lwrist 24.1895
lhand 9.72484 -21.3539
lfingers 7.12502
lthumb 34.8653 5.23349
rfemur 7.16729 1.67571 20.1909
rtibia -2.38542e-014
rfoot -16.3704 -14.056
rtoes -15.6615
lfemur -12.189 -0.683088 -7.18864
ltibia 32.1626
lfoot -20.2825 4.35155
ltoes -57.2683
